<svg width="36" height="36" viewBox="0 0 36 36" fill="none" xmlns="http://www.w3.org/2000/svg">
<path d="M16.3 26.5H19.7V19.7H26.5V16.3H19.7V9.5H16.3V16.3H9.5V19.7H16.3V26.5ZM18 35C15.6483 35 13.4383 34.5608 11.37 33.6825C9.30167 32.7758 7.5025 31.5575 5.9725 30.0275C4.4425 28.4975 3.22417 26.6983 2.3175 24.63C1.43917 22.5617 1 20.3517 1 18C1 15.6483 1.43917 13.4383 2.3175 11.37C3.22417 9.30167 4.4425 7.5025 5.9725 5.9725C7.5025 4.4425 9.30167 3.23833 11.37 2.36C13.4383 1.45333 15.6483 1 18 1C20.3517 1 22.5617 1.45333 24.63 2.36C26.6983 3.23833 28.4975 4.4425 30.0275 5.9725C31.5575 7.5025 32.7617 9.30167 33.64 11.37C34.5467 13.4383 35 15.6483 35 18C35 20.3517 34.5467 22.5617 33.64 24.63C32.7617 26.6983 31.5575 28.4975 30.0275 30.0275C28.4975 31.5575 26.6983 32.7758 24.63 33.6825C22.5617 34.5608 20.3517 35 18 35ZM18 31.6C21.7967 31.6 25.0125 30.2825 27.6475 27.6475C30.2825 25.0125 31.6 21.7967 31.6 18C31.6 14.2033 30.2825 10.9875 27.6475 8.3525C25.0125 5.7175 21.7967 4.4 18 4.4C14.2033 4.4 10.9875 5.7175 8.3525 8.3525C5.7175 10.9875 4.4 14.2033 4.4 18C4.4 21.7967 5.7175 25.0125 8.3525 27.6475C10.9875 30.2825 14.2033 31.6 18 31.6Z" fill="url(#paint0_linear_79_2741)" stroke="url(#paint1_linear_79_2741)"/>
<defs>
<linearGradient id="paint0_linear_79_2741" x1="18" y1="1" x2="18" y2="35" gradientUnits="userSpaceOnUse">
<stop stop-color="#4E2A75"/>
<stop offset="1" stop-color="#E6515E"/>
</linearGradient>
<linearGradient id="paint1_linear_79_2741" x1="18" y1="1" x2="18" y2="35" gradientUnits="userSpaceOnUse">
<stop stop-color="#4E2A75"/>
<stop offset="1" stop-color="#E6515E"/>
</linearGradient>
</defs>
</svg>
