<svg width="64" height="37" viewBox="0 0 64 37" fill="none" xmlns="http://www.w3.org/2000/svg">
<path fill-rule="evenodd" clip-rule="evenodd" d="M53.3401 11.2196C51.3007 9.34042 49.0176 8.0289 46.8888 8.17635C45.083 8.30142 43.7777 9.41302 41.5272 11.4993C41.4826 11.5407 41.4374 11.5826 41.3919 11.6249C39.355 13.5151 36.4175 16.2411 32.1644 16.3275C27.7048 16.4182 24.7519 13.5383 22.747 11.583C22.705 11.542 22.6635 11.5015 22.6223 11.4615C20.4235 9.3192 19.212 8.24836 17.4144 8.18129C15.2739 8.10142 12.8961 9.46233 10.7636 11.3501C9.75361 12.2442 8.91447 13.1535 8.32892 13.8398C8.0382 14.1805 7.81533 14.4599 7.67075 14.6464C7.59859 14.7395 7.54632 14.8089 7.51525 14.8507C7.49973 14.8715 7.48954 14.8854 7.48485 14.8918L7.48327 14.894L5.25597 18L0 12.7153L2.23151 9.6034L4.85949 12.2458C2.23151 9.6034 2.2328 9.6016 2.2328 9.6016L2.23752 9.59504L2.24579 9.58358L2.26907 9.55157C2.28755 9.52625 2.31197 9.49305 2.34215 9.45249C2.40249 9.37141 2.48602 9.26076 2.5914 9.12483C2.80191 8.85331 3.10115 8.47899 3.47848 8.03676C4.22905 7.15711 5.30984 5.98381 6.63508 4.81068C9.17305 2.56403 13.1271 -0.147476 17.6316 0.0205942C21.918 0.180528 24.7955 2.99634 26.7474 4.90648C26.8345 4.99176 26.9198 5.07524 27.0033 5.15659C29.1493 7.24737 30.3202 8.19909 32.0461 8.164C33.7957 8.12843 35.0723 7.11398 37.2767 5.07042C37.3624 4.99097 37.4499 4.90958 37.5391 4.82656C39.5269 2.97641 42.3926 0.309061 46.4862 0.0255362C51.1149 -0.295056 55.0676 2.46585 57.5747 4.77606C58.8805 5.97927 59.9338 7.18919 60.6614 8.09711C61.0275 8.55381 61.3168 8.94131 61.5204 9.22318C61.6224 9.3643 61.7032 9.47951 61.7618 9.56431C61.7911 9.60673 61.8149 9.6416 61.833 9.66836L61.8559 9.70237L61.8641 9.71469L61.8689 9.72185C61.8689 9.72185 61.8702 9.72384 59.1591 12.2458L61.8702 9.72384L64 12.9341L58.5779 17.9779L56.454 14.7767L56.4521 14.7738C56.4482 14.768 56.439 14.7546 56.4248 14.734C56.3964 14.6929 56.3479 14.6235 56.2804 14.53C56.1451 14.3427 55.9353 14.061 55.66 13.7175C55.1051 13.0252 54.3075 12.1111 53.3401 11.2196Z" fill="url(#paint0_linear_79_3048)"/>
<path fill-rule="evenodd" clip-rule="evenodd" d="M53.3401 30.2196C51.3007 28.3404 49.0176 27.0289 46.8888 27.1763C45.083 27.3014 43.7777 28.413 41.5272 30.4993C41.4826 30.5407 41.4374 30.5826 41.3919 30.6249C39.355 32.5151 36.4175 35.2411 32.1644 35.3275C27.7048 35.4182 24.7519 32.5383 22.747 30.583C22.705 30.542 22.6635 30.5015 22.6223 30.4615C20.4235 28.3192 19.212 27.2484 17.4144 27.1813C15.2739 27.1014 12.8961 28.4623 10.7636 30.3501C9.75361 31.2442 8.91447 32.1535 8.32892 32.8398C8.0382 33.1805 7.81533 33.4599 7.67075 33.6464C7.59859 33.7395 7.54632 33.8089 7.51525 33.8507C7.49973 33.8715 7.48954 33.8854 7.48485 33.8918L7.48327 33.894L5.25597 37L0 31.7153L2.23151 28.6034L4.85949 31.2458C2.23151 28.6034 2.2328 28.6016 2.2328 28.6016L2.23752 28.595L2.24579 28.5836L2.26907 28.5516C2.28755 28.5262 2.31197 28.493 2.34215 28.4525C2.40249 28.3714 2.48602 28.2608 2.5914 28.1248C2.80191 27.8533 3.10115 27.479 3.47848 27.0368C4.22905 26.1571 5.30984 24.9838 6.63508 23.8107C9.17305 21.564 13.1271 18.8525 17.6316 19.0206C21.918 19.1805 24.7955 21.9963 26.7474 23.9065C26.8345 23.9918 26.9198 24.0752 27.0033 24.1566C29.1493 26.2474 30.3202 27.1991 32.0461 27.164C33.7957 27.1284 35.0723 26.114 37.2767 24.0704C37.3624 23.991 37.4499 23.9096 37.5391 23.8266C39.5269 21.9764 42.3926 19.3091 46.4862 19.0255C51.1149 18.7049 55.0676 21.4658 57.5747 23.7761C58.8805 24.9793 59.9338 26.1892 60.6614 27.0971C61.0275 27.5538 61.3168 27.9413 61.5204 28.2232C61.6224 28.3643 61.7032 28.4795 61.7618 28.5643C61.7911 28.6067 61.8149 28.6416 61.833 28.6684L61.8559 28.7024L61.8641 28.7147L61.8689 28.7219C61.8689 28.7219 61.8702 28.7238 59.1591 31.2458L61.8702 28.7238L64 31.9341L58.5779 36.9779L56.454 33.7767L56.4521 33.7738C56.4482 33.768 56.439 33.7546 56.4248 33.734C56.3964 33.6929 56.3479 33.6235 56.2804 33.53C56.1451 33.3427 55.9353 33.061 55.66 32.7175C55.1051 32.0252 54.3075 31.1111 53.3401 30.2196Z" fill="url(#paint1_linear_79_3048)"/>
<defs>
<linearGradient id="paint0_linear_79_3048" x1="32" y1="0" x2="32" y2="18" gradientUnits="userSpaceOnUse">
<stop stop-color="#4E2A75"/>
<stop offset="1" stop-color="#E6515E"/>
</linearGradient>
<linearGradient id="paint1_linear_79_3048" x1="32" y1="19" x2="32" y2="37" gradientUnits="userSpaceOnUse">
<stop stop-color="#4E2A75"/>
<stop offset="1" stop-color="#E6515E"/>
</linearGradient>
</defs>
</svg>
