<svg width="37" height="39" viewBox="0 0 37 39" fill="none" xmlns="http://www.w3.org/2000/svg">
<path fill-rule="evenodd" clip-rule="evenodd" d="M18.5 5.84832C11.0693 5.84832 5.04545 12.0349 5.04545 19.6665C5.04545 27.2981 11.0693 33.4847 18.5 33.4847C25.9307 33.4847 31.9545 27.2981 31.9545 19.6665C31.9545 12.0349 25.9307 5.84832 18.5 5.84832ZM0 19.6665C0 9.17309 8.28273 0.666504 18.5 0.666504C28.7173 0.666504 37 9.17309 37 19.6665C37 30.1599 28.7173 38.6665 18.5 38.6665C8.28273 38.6665 0 30.1599 0 19.6665ZM18.5 10.512C19.8933 10.512 21.0227 11.6719 21.0227 13.1029V19.6665C21.0227 21.0974 19.8933 22.2574 18.5 22.2574C17.1067 22.2574 15.9773 21.0974 15.9773 19.6665V13.1029C15.9773 11.6719 17.1067 10.512 18.5 10.512ZM15.9773 26.2301C15.9773 24.7992 17.1067 23.6392 18.5 23.6392H18.516C19.9092 23.6392 21.0387 24.7992 21.0387 26.2301C21.0387 27.6611 19.9092 28.821 18.516 28.821H18.5C17.1067 28.821 15.9773 27.6611 15.9773 26.2301Z" fill="url(#paint0_linear_79_3043)"/>
<defs>
<linearGradient id="paint0_linear_79_3043" x1="18.5" y1="0.666504" x2="18.5" y2="38.6665" gradientUnits="userSpaceOnUse">
<stop stop-color="#4E2A75"/>
<stop offset="1" stop-color="#E6515E"/>
</linearGradient>
</defs>
</svg>
