<svg width="30" height="38" viewBox="0 0 30 38" fill="none" xmlns="http://www.w3.org/2000/svg">
<path fill-rule="evenodd" clip-rule="evenodd" d="M26.6667 0C28.5076 0 30 1.50116 30 3.35294V34.6471C30 36.4988 28.5076 38 26.6667 38C24.8257 38 23.3333 36.4988 23.3333 34.6471V3.35294C23.3333 1.50116 24.8257 0 26.6667 0ZM15 11.7353C16.8409 11.7353 18.3333 13.2365 18.3333 15.0882V34.6471C18.3333 36.4988 16.8409 38 15 38C13.1591 38 11.6667 36.4988 11.6667 34.6471V15.0882C11.6667 13.2365 13.1591 11.7353 15 11.7353ZM3.33333 23.4706C5.17428 23.4706 6.66667 24.9718 6.66667 26.8235V34.6471C6.66667 36.4988 5.17428 38 3.33333 38C1.49238 38 0 36.4988 0 34.6471V26.8235C0 24.9718 1.49238 23.4706 3.33333 23.4706Z" fill="url(#paint0_linear_79_3042)"/>
<defs>
<linearGradient id="paint0_linear_79_3042" x1="15" y1="0" x2="15" y2="38" gradientUnits="userSpaceOnUse">
<stop stop-color="#4E2A75"/>
<stop offset="1" stop-color="#E6515E"/>
</linearGradient>
</defs>
</svg>
