<svg width="36" height="36" viewBox="0 0 36 36" fill="none" xmlns="http://www.w3.org/2000/svg">
<path fill-rule="evenodd" clip-rule="evenodd" d="M31.3548 18C31.3548 25.3757 25.3757 31.3548 18 31.3548C10.6243 31.3548 4.64516 25.3757 4.64516 18C4.64516 10.6243 10.6243 4.64516 18 4.64516C25.3757 4.64516 31.3548 10.6243 31.3548 18ZM36 18C36 27.9411 27.9411 36 18 36C8.05887 36 0 27.9411 0 18C0 8.05887 8.05887 0 18 0C27.9411 0 36 8.05887 36 18Z" fill="url(#paint0_linear_96_36)"/>
<rect x="11.6128" y="10.4517" width="3.48387" height="9.29032" fill="url(#paint1_linear_96_36)"/>
<rect x="20.9033" y="10.4517" width="3.48387" height="9.29032" fill="url(#paint2_linear_96_36)"/>
<defs>
<linearGradient id="paint0_linear_96_36" x1="18" y1="0" x2="18" y2="36" gradientUnits="userSpaceOnUse">
<stop stop-color="#4E2A75"/>
<stop offset="1" stop-color="#E6515E"/>
</linearGradient>
<linearGradient id="paint1_linear_96_36" x1="13.3547" y1="10.4517" x2="13.3547" y2="19.742" gradientUnits="userSpaceOnUse">
<stop stop-color="#4E2A75"/>
<stop offset="1" stop-color="#E6515E"/>
</linearGradient>
<linearGradient id="paint2_linear_96_36" x1="22.6453" y1="10.4517" x2="22.6453" y2="19.742" gradientUnits="userSpaceOnUse">
<stop stop-color="#4E2A75"/>
<stop offset="1" stop-color="#E6515E"/>
</linearGradient>
</defs>
</svg>
