<svg width="30" height="38" viewBox="0 0 30 38" fill="none" xmlns="http://www.w3.org/2000/svg">
<path fill-rule="evenodd" clip-rule="evenodd" d="M4 4.5V33.5H26V10.974L22.6286 11.6964C20.7611 12.0966 19 10.6729 19 8.76301V4.5H4ZM0 3.5C0 1.84315 1.34314 0.5 3 0.5H21.7398L30 7.58013V34.5C30 36.1569 28.6569 37.5 27 37.5H3C1.34315 37.5 0 36.1569 0 34.5V3.5Z" fill="url(#paint0_linear_97_42)"/>
<path d="M12.5739 13L14.9602 17.233H15.0739L17.4886 13H21.892L17.5455 20.2727L22.0625 27.5455H17.5455L15.0739 23.2273H14.9602L12.4886 27.5455H8L12.4602 20.2727L8.14205 13H12.5739Z" fill="url(#paint1_linear_97_42)"/>
<defs>
<linearGradient id="paint0_linear_97_42" x1="15" y1="0.5" x2="15" y2="37.5" gradientUnits="userSpaceOnUse">
<stop stop-color="#4E2A75"/>
<stop offset="1" stop-color="#E6515E"/>
</linearGradient>
<linearGradient id="paint1_linear_97_42" x1="15.0312" y1="13" x2="15.0313" y2="27.5455" gradientUnits="userSpaceOnUse">
<stop stop-color="#4E2A75"/>
<stop offset="1" stop-color="#E6515E"/>
</linearGradient>
</defs>
</svg>
