<svg width="36" height="36" viewBox="0 0 36 36" fill="none" xmlns="http://www.w3.org/2000/svg">
<path d="M32 18C32 10.268 25.732 4 18 4C10.268 4 4 10.268 4 18C4 25.732 10.268 32 18 32V36C8.05887 36 0 27.9411 0 18C0 8.05887 8.05887 0 18 0C27.9411 0 36 8.05887 36 18C36 27.9411 27.9411 36 18 36V32C25.732 32 32 25.732 32 18Z" fill="url(#paint0_linear_136_23)"/>
<path d="M15.6989 21.3494V21C15.6989 20.0341 15.7784 19.2642 15.9375 18.6903C16.1023 18.1165 16.3409 17.6563 16.6534 17.3097C16.9659 16.9574 17.3466 16.6364 17.7955 16.3466C18.1534 16.1193 18.4716 15.8892 18.75 15.6563C19.0341 15.4176 19.2585 15.1619 19.4233 14.8892C19.5881 14.6165 19.6705 14.3068 19.6705 13.9602C19.6705 13.625 19.5909 13.3295 19.4318 13.0739C19.2727 12.8182 19.054 12.6222 18.7756 12.4858C18.5028 12.3438 18.1989 12.2727 17.8636 12.2727C17.5284 12.2727 17.2131 12.3494 16.9176 12.5028C16.6278 12.6563 16.3892 12.875 16.2017 13.1591C16.0199 13.4375 15.9261 13.7756 15.9205 14.1733H12C12.017 12.9801 12.2926 12.0028 12.8267 11.2415C13.3665 10.4801 14.0795 9.91761 14.9659 9.55398C15.8523 9.18466 16.8295 9 17.8977 9C19.0682 9 20.108 9.18182 21.017 9.54545C21.9318 9.90909 22.6506 10.446 23.1733 11.1562C23.696 11.8665 23.9574 12.7358 23.9574 13.7642C23.9574 14.4403 23.8438 15.0369 23.6165 15.554C23.3892 16.071 23.071 16.5284 22.6619 16.9261C22.2585 17.3182 21.7841 17.6761 21.2386 18C20.8125 18.25 20.4574 18.5114 20.1733 18.7841C19.8949 19.0568 19.6847 19.3693 19.5426 19.7216C19.4006 20.0682 19.3295 20.4943 19.3295 21V21.3494H15.6989ZM17.5824 26.9403C16.9688 26.9403 16.4432 26.7244 16.0057 26.2926C15.5739 25.8608 15.3608 25.3381 15.3665 24.7244C15.3608 24.1222 15.5739 23.608 16.0057 23.1818C16.4432 22.75 16.9688 22.5341 17.5824 22.5341C18.1676 22.5341 18.6818 22.75 19.125 23.1818C19.5682 23.608 19.7926 24.1222 19.7983 24.7244C19.7926 25.1335 19.6847 25.5057 19.4744 25.8409C19.2699 26.1761 19 26.4432 18.6648 26.642C18.3352 26.8409 17.9744 26.9403 17.5824 26.9403Z" fill="url(#paint1_linear_136_23)"/>
<defs>
<linearGradient id="paint0_linear_136_23" x1="18" y1="0" x2="18" y2="36" gradientUnits="userSpaceOnUse">
<stop stop-color="#4E2A75"/>
<stop offset="1" stop-color="#E6515E"/>
</linearGradient>
<linearGradient id="paint1_linear_136_23" x1="17.9787" y1="9" x2="17.9787" y2="26.9403" gradientUnits="userSpaceOnUse">
<stop stop-color="#4E2A75"/>
<stop offset="1" stop-color="#E6515E"/>
</linearGradient>
</defs>
</svg>
