<svg width="36" height="36" viewBox="0 0 36 36" fill="none" xmlns="http://www.w3.org/2000/svg">
<path d="M32 18C32 10.268 25.732 4 18 4C10.268 4 4 10.268 4 18C4 25.732 10.268 32 18 32V36C8.05887 36 0 27.9411 0 18C0 8.05887 8.05887 0 18 0C27.9411 0 36 8.05887 36 18C36 27.9411 27.9411 36 18 36V32C25.732 32 32 25.732 32 18Z" fill="url(#paint0_linear_132_33)"/>
<path d="M16.5 10.5C16.5 9.67157 17.1716 9 18 9C18.8284 9 19.5 9.67157 19.5 10.5V15.5781L23.6357 14.5449C24.4393 14.344 25.254 14.8323 25.4551 15.6357C25.656 16.4393 25.1677 17.254 24.3643 17.4551L16.5 19.4209V10.5Z" fill="url(#paint1_linear_132_33)"/>
<defs>
<linearGradient id="paint0_linear_132_33" x1="18" y1="0" x2="18" y2="36" gradientUnits="userSpaceOnUse">
<stop stop-color="#4E2A75"/>
<stop offset="1" stop-color="#E6515E"/>
</linearGradient>
<linearGradient id="paint1_linear_132_33" x1="21.0001" y1="9" x2="21.0001" y2="19.4209" gradientUnits="userSpaceOnUse">
<stop stop-color="#4E2A75"/>
<stop offset="1" stop-color="#E6515E"/>
</linearGradient>
</defs>
</svg>
