<svg width="57" height="68" viewBox="0 0 57 68" fill="none" xmlns="http://www.w3.org/2000/svg">
<path d="M18.48 52.0001L36.28 24.2401H39.92L22.12 52.0001H18.48ZM34.76 52.4001C33.72 52.4001 32.7733 52.1468 31.92 51.6401C31.0667 51.1334 30.3867 50.4668 29.88 49.6401C29.3733 48.7868 29.12 47.8268 29.12 46.7601C29.12 45.7201 29.3733 44.7868 29.88 43.9601C30.3867 43.1068 31.0667 42.4268 31.92 41.9201C32.7733 41.4134 33.72 41.1601 34.76 41.1601C35.8 41.1601 36.7467 41.4134 37.6 41.9201C38.48 42.4268 39.1733 43.1068 39.68 43.9601C40.1867 44.7868 40.44 45.7201 40.44 46.7601C40.44 47.8268 40.1867 48.7868 39.68 49.6401C39.1733 50.4668 38.4933 51.1334 37.64 51.6401C36.7867 52.1468 35.8267 52.4001 34.76 52.4001ZM34.76 49.5601C35.56 49.5601 36.2133 49.3068 36.72 48.8001C37.2267 48.2668 37.48 47.5868 37.48 46.7601C37.48 45.9601 37.2133 45.3068 36.68 44.8001C36.1733 44.2668 35.5333 44.0001 34.76 44.0001C33.9867 44.0001 33.3467 44.2668 32.84 44.8001C32.3333 45.3068 32.08 45.9601 32.08 46.7601C32.08 47.5868 32.3333 48.2668 32.84 48.8001C33.3467 49.3068 33.9867 49.5601 34.76 49.5601ZM23.6 35.0801C22.5867 35.0801 21.6533 34.8268 20.8 34.3201C19.9467 33.8134 19.2667 33.1334 18.76 32.2801C18.2533 31.4268 18 30.4801 18 29.4401C18 28.3734 18.24 27.4268 18.72 26.6001C19.2267 25.7734 19.9067 25.1068 20.76 24.6001C21.6133 24.0934 22.56 23.8401 23.6 23.8401C24.6667 23.8401 25.6267 24.0934 26.48 24.6001C27.3333 25.1068 28.0133 25.7734 28.52 26.6001C29.0267 27.4268 29.28 28.3734 29.28 29.4401C29.28 30.4801 29.0267 31.4268 28.52 32.2801C28.0133 33.1334 27.3333 33.8134 26.48 34.3201C25.6533 34.8268 24.6933 35.0801 23.6 35.0801ZM23.6 32.2401C24.4 32.2401 25.0533 31.9868 25.56 31.4801C26.0667 30.9468 26.32 30.2668 26.32 29.4401C26.32 28.6134 26.0533 27.9468 25.52 27.4401C25.0133 26.9334 24.3733 26.6801 23.6 26.6801C22.8267 26.6801 22.1867 26.9334 21.68 27.4401C21.2 27.9468 20.96 28.6134 20.96 29.4401C20.96 30.2668 21.2 30.9468 21.68 31.4801C22.1867 31.9868 22.8267 32.2401 23.6 32.2401Z" fill="url(#paint0_linear_79_3044)"/>
<path fill-rule="evenodd" clip-rule="evenodd" d="M28.4827 2.93688e-07C29.2824 -0.000353281 30.0491 0.318561 30.6126 0.88593L48.6532 19.05C52.6393 23.0608 55.3521 28.1693 56.4518 33.7282C57.5514 39.287 56.9891 45.0495 54.8351 50.2877C52.6811 55.526 49.031 60.0068 44.3436 63.1609C39.6558 66.3151 34.1421 68 28.5 68C22.8579 68 17.3442 66.3151 12.6564 63.1609C7.96898 60.0068 4.31894 55.526 2.1649 50.2877C0.0109425 45.0495 -0.551371 39.287 0.548238 33.7282C1.64777 28.1698 4.36025 23.0617 8.34578 19.0511C8.34613 19.0507 8.34649 19.0504 8.34684 19.05L26.3536 0.887813C26.9167 0.319946 27.6831 0.000353868 28.4827 2.93688e-07ZM28.4859 7.25909L12.6025 23.2795C9.45284 26.4487 7.30511 30.4897 6.43418 34.8925C5.56324 39.2954 6.00894 43.8592 7.71406 48.0058C9.41911 52.1523 12.3059 55.6931 16.006 58.1829C19.7059 60.6725 24.0539 62 28.5 62C32.9461 62 37.2941 60.6725 40.994 58.1829C44.6941 55.6931 47.5809 52.1523 49.2859 48.0058C50.9911 43.8592 51.4368 39.2954 50.5658 34.8925C49.6949 30.4898 47.5472 26.4487 44.3975 23.2795L28.4859 7.25909Z" fill="url(#paint1_linear_79_3044)"/>
<defs>
<linearGradient id="paint0_linear_79_3044" x1="29.22" y1="23.8401" x2="29.22" y2="52.4001" gradientUnits="userSpaceOnUse">
<stop stop-color="#4E2A75"/>
<stop offset="1" stop-color="#E6515E"/>
</linearGradient>
<linearGradient id="paint1_linear_79_3044" x1="28.5" y1="0" x2="28.5" y2="68" gradientUnits="userSpaceOnUse">
<stop stop-color="#4E2A75"/>
<stop offset="1" stop-color="#E6515E"/>
</linearGradient>
</defs>
</svg>
