<svg width="37" height="37" viewBox="0 0 37 37" fill="none" xmlns="http://www.w3.org/2000/svg">
<path fill-rule="evenodd" clip-rule="evenodd" d="M6.56028 6.29787C6.49069 6.29787 6.42394 6.32552 6.37473 6.37473C6.32552 6.42394 6.29787 6.49069 6.29787 6.56028V30.4397C6.29787 30.5093 6.32552 30.5761 6.37473 30.6253C6.42394 30.6745 6.49069 30.7021 6.56028 30.7021H13.383C15.1221 30.7021 16.5319 32.112 16.5319 33.8511C16.5319 35.5902 15.1221 37 13.383 37H6.56028C4.82039 37 3.15176 36.3088 1.92146 35.0785C0.691171 33.8482 0 32.1796 0 30.4397V6.56028C0 4.82039 0.69117 3.15175 1.92146 1.92146C3.15175 0.69117 4.82039 0 6.56028 0H13.383C15.1221 0 16.5319 1.40983 16.5319 3.14894C16.5319 4.88805 15.1221 6.29787 13.383 6.29787H6.56028ZM23.0961 7.745C24.3258 6.51526 26.3196 6.51526 27.5493 7.745L36.0777 16.2734C37.3074 17.5031 37.3074 19.4969 36.0777 20.7266L27.5493 29.255C26.3196 30.4847 24.3258 30.4847 23.0961 29.255C21.8663 28.0253 21.8663 26.0315 23.0961 24.8017L26.2489 21.6489H13.383C11.6439 21.6489 10.234 20.2391 10.234 18.5C10.234 16.7609 11.6439 15.3511 13.383 15.3511H26.2489L23.0961 12.1983C21.8663 10.9685 21.8663 8.97473 23.0961 7.745Z" fill="url(#paint0_linear_79_2742)"/>
<defs>
<linearGradient id="paint0_linear_79_2742" x1="18.5" y1="0" x2="18.5" y2="37" gradientUnits="userSpaceOnUse">
<stop stop-color="#4E2A75"/>
<stop offset="1" stop-color="#E6515E"/>
</linearGradient>
</defs>
</svg>
