<?xml version="1.0" encoding="UTF-8"?>
<svg id="Capa_2" data-name="Capa 2" xmlns="http://www.w3.org/2000/svg" xmlns:xlink="http://www.w3.org/1999/xlink" viewBox="0 0 38.58 56.48">
  <defs>
    <style>
      .cls-1 {
        fill: url(#Degradado-2);
      }

      .cls-2 {
        fill: url(#Degradado);
      }
    </style>
    <linearGradient id="Degradado" x1="6.89" y1="19.39" x2="31.77" y2="19.39" gradientUnits="userSpaceOnUse">
      <stop offset="0" stop-color="#4e2a75"/>
      <stop offset="1" stop-color="#e6525e"/>
    </linearGradient>
    <linearGradient id="Degradado-2" data-name="Degradado" x1="0" y1="40.65" x2="38.58" y2="40.65" xlink:href="#Degradado"/>
  </defs>
  <g id="Capa_1-2" data-name="Capa 1">
    <g>
      <path class="cls-2" d="M21.02.07c5.88.54,10.13,5.46,10.52,11.2.31,4.66.31,11.8,0,16.47-.99,14.81-23.37,14.52-24.48.46-.47-5.99.17-12.86.22-18.89C8.24,4.58,12.59.55,17.41.07c.92-.09,2.69-.09,3.61,0ZM28.08,10.72C27.09.83,11.48.87,10.51,10.72h2.75c.61,0,1.45.84,1.5,1.49s-.5,1.8-1.19,1.8h-2.98l-.24.24v3.53h4.63c1.89,0,1.92,3.29.31,3.29h-4.94v3.76h2.9c.14,0,.87.4,1.03.54.56.51.64,1.48.22,2.11-.11.16-.83.64-.93.64h-3.06c.13,3.22,2.71,6.18,5.8,6.98,4.63,1.19,9.68-.32,11.41-5.06.1-.28.45-1.38.45-1.59,0-.19-.02-.2-.18-.32h-3.14c-.06,0-.77-.58-.85-.72-.34-.6-.25-1.44.21-1.95.12-.13.86-.62.95-.62h3.06v-3.53l-.24-.24h-4.71c-.91,0-1.33-1.33-1.17-2.11.09-.46,1.1-1.18,1.49-1.18h4.63v-3.53l-.24-.24h-2.98c-.14,0-.89-.52-1-.72-.37-.65-.25-1.63.37-2.1.18-.14.94-.47,1.1-.47h2.59Z"/>
      <path class="cls-1" d="M0,26.08c.67-1.73,3-1.63,3.28.24.42,2.81.28,4.44,1.6,7.18,6.76,14.04,27.73,10.92,30.24-4.7.21-1.3-.18-3.8,1.68-3.98,2.25-.22,1.8,3.09,1.61,4.45-1.16,8.58-8.69,15.84-17.39,16.39v7.52h9.18c.57,0,1.29.94,1.33,1.51.07.96-.51,1.22-1.09,1.78H8.16c-.87-.62-1.53-1.43-.86-2.5.11-.18.79-.79.93-.79h9.33v-7.36c-7.96-1.01-14.81-6.37-16.9-14.23-.29-1.1-.43-2.22-.67-3.32v-2.19Z"/>
    </g>
  </g>
</svg>