<svg width="41" height="42" viewBox="0 0 41 42" fill="none" xmlns="http://www.w3.org/2000/svg">
<path fill-rule="evenodd" clip-rule="evenodd" d="M20.5 4.09119C20.0089 4.09119 19.538 4.28627 19.1907 4.63351C18.8435 4.98076 18.6484 5.45172 18.6484 5.9428V6.24142C18.6449 7.1042 18.3893 7.94715 17.9129 8.6665C17.4365 9.38585 16.7602 9.9502 15.9671 10.2901C15.8288 10.3494 15.683 10.3886 15.5342 10.4067C14.8099 10.6629 14.0294 10.7267 13.2696 10.589C12.3999 10.4313 11.5973 10.0166 10.9654 9.39848L10.9528 9.38624L10.8498 9.28301C10.6778 9.11086 10.473 8.97366 10.2482 8.88048C10.0234 8.7873 9.78244 8.73934 9.53911 8.73934C9.29578 8.73934 9.05484 8.7873 8.83006 8.88048C8.60527 8.97366 8.40106 9.11023 8.2291 9.28239L8.22785 9.28364C8.05569 9.4556 7.91912 9.65981 7.82594 9.8846C7.73276 10.1094 7.68479 10.3503 7.68479 10.5937C7.68479 10.837 7.73276 11.0779 7.82594 11.3027C7.91912 11.5275 8.05569 11.7317 8.22785 11.9037L8.34401 12.0198C8.96213 12.6517 9.37672 13.4544 9.53442 14.3242C9.68915 15.1775 9.5896 16.0571 9.24874 16.8537C8.93911 17.667 8.39631 18.3713 7.68788 18.878C6.96584 19.3945 6.10513 19.6817 5.21766 19.7025L5.18055 19.7029H5.02581C4.53473 19.7029 4.06376 19.898 3.71652 20.2453C3.36927 20.5925 3.17419 21.0635 3.17419 21.5545C3.17419 22.0456 3.36927 22.5166 3.71652 22.8638C4.06376 23.2111 4.53473 23.4062 5.02581 23.4062H5.32443C6.18721 23.4096 7.03016 23.6653 7.74951 24.1416C8.46648 24.6165 9.02947 25.2899 9.36971 26.0795C9.72389 26.8862 9.82917 27.7804 9.67197 28.6474C9.51426 29.5171 9.09961 30.3197 8.48149 30.9516L8.46924 30.9642L8.36601 31.0672C8.19386 31.2392 8.05667 31.444 7.96349 31.6688C7.8703 31.8936 7.82234 32.1345 7.82234 32.3779C7.82234 32.6212 7.8703 32.8621 7.96349 33.0869C8.05667 33.3117 8.19324 33.5159 8.3654 33.6879L8.36665 33.6891C8.53861 33.8613 8.74282 33.9979 8.9676 34.0911C9.19239 34.1842 9.43333 34.2322 9.67666 34.2322C9.91999 34.2322 10.1609 34.1842 10.3857 34.0911C10.6105 33.9979 10.8147 33.8613 10.9867 33.6891L11.1028 33.573C11.7348 32.9548 12.5374 32.5403 13.4072 32.3826C14.2605 32.2278 15.1401 32.3274 15.9367 32.6682C16.75 32.9779 17.4544 33.5207 17.9611 34.2291C18.4775 34.9512 18.7647 35.8119 18.7855 36.6993L18.7859 36.7364V36.8912C18.7859 37.3823 18.981 37.8532 19.3283 38.2005C19.6755 38.5477 20.1465 38.7428 20.6375 38.7428C21.1286 38.7428 21.5996 38.5477 21.9468 38.2005C22.2941 37.8532 22.4892 37.3823 22.4892 36.8912V36.5989L22.4892 36.5926C22.4926 35.7298 22.7483 34.8868 23.2247 34.1675C23.6995 33.4505 24.373 32.8874 25.1627 32.5472C25.9694 32.1931 26.8634 32.0878 27.7304 32.245C28.6001 32.4027 29.4027 32.8174 30.0346 33.4355L30.0472 33.4478L30.1503 33.551C30.3222 33.7231 30.527 33.8603 30.7518 33.9535C30.9766 34.0467 31.2176 34.0946 31.4609 34.0946C31.7042 34.0946 31.9452 34.0467 32.1699 33.9535C32.3947 33.8603 32.5989 33.7237 32.7709 33.5516L32.7722 33.5503C32.9443 33.3784 33.0809 33.1742 33.1741 32.9494C33.2672 32.7246 33.3152 32.4837 33.3152 32.2403C33.3152 31.997 33.2672 31.7561 33.1741 31.5313C33.0809 31.3065 32.9443 31.1023 32.7722 30.9303L32.656 30.8142C32.0379 30.1822 31.6233 29.3796 31.4656 28.5098C31.3084 27.6429 31.4136 26.7488 31.7678 25.9422C32.108 25.1525 32.671 24.4789 33.388 24.0041C34.1074 23.5277 34.9503 23.2721 35.8131 23.2686L35.8194 23.2686L35.9742 23.2686C36.4653 23.2686 36.9362 23.0735 37.2835 22.7263C37.6307 22.379 37.8258 21.9081 37.8258 21.417C37.8258 20.9259 37.6307 20.455 37.2835 20.1077C36.9362 19.7605 36.4653 19.5654 35.9742 19.5654H35.6819L35.6756 19.5654C34.8128 19.5619 33.9698 19.3063 33.2505 18.8299C32.5311 18.3535 31.9668 17.6772 31.6269 16.8841C31.5676 16.7458 31.5284 16.6 31.5103 16.4512C31.2541 15.7269 31.1903 14.9463 31.328 14.1866C31.4857 13.3169 31.9004 12.5143 32.5185 11.8824L32.5308 11.8698L32.634 11.7667C32.8061 11.5948 32.9433 11.3899 33.0365 11.1652C33.1297 10.9404 33.1777 10.6994 33.1777 10.4561C33.1777 10.2128 33.1297 9.97183 33.0365 9.74705C32.9433 9.52227 32.8068 9.31806 32.6346 9.14609L32.6334 9.14484C32.4614 8.97268 32.2572 8.83611 32.0324 8.74293C31.8076 8.64975 31.5667 8.60179 31.3233 8.60179C31.08 8.60179 30.8391 8.64975 30.6143 8.74293C30.3895 8.83611 30.1853 8.97269 30.0133 9.14484L29.8972 9.261C29.2652 9.87913 28.4626 10.2937 27.5928 10.4514C26.7258 10.6086 25.8317 10.5033 25.025 10.1492C24.2354 9.80892 23.5619 9.24593 23.0871 8.52895C22.6107 7.80961 22.3551 6.96666 22.3516 6.10387L22.3516 6.09754V5.9428C22.3516 5.45172 22.1565 4.98076 21.8093 4.63351C21.462 4.28627 20.9911 4.09119 20.5 4.09119ZM16.9462 2.38902C17.8887 1.4465 19.1671 0.916992 20.5 0.916992C21.8329 0.916992 23.1113 1.4465 24.0538 2.38902C24.9963 3.33154 25.5258 4.60987 25.5258 5.9428V6.09365C25.5272 6.33654 25.5994 6.57378 25.7336 6.77632C25.8682 6.97955 26.0592 7.13898 26.2833 7.235L26.2989 7.24171C26.5274 7.34254 26.7808 7.3727 27.0265 7.32815C27.2699 7.28401 27.4947 7.16865 27.6724 6.99675L27.7676 6.9016C27.7678 6.90139 27.7674 6.9018 27.7676 6.9016C28.2342 6.4346 28.7889 6.0635 29.3988 5.8107C30.0089 5.55778 30.6629 5.42759 31.3233 5.42759C31.9838 5.42759 32.6378 5.55778 33.2479 5.8107C33.858 6.06361 34.4123 6.43431 34.8791 6.9016C35.3458 7.3681 35.7161 7.92194 35.9687 8.53152C36.2217 9.14165 36.3518 9.79564 36.3518 10.4561C36.3518 11.1166 36.2217 11.7706 35.9687 12.3807C35.7159 12.9905 35.3455 13.5446 34.8785 14.0112C34.8783 14.0114 34.8787 14.011 34.8785 14.0112L34.7828 14.1069C34.6108 14.2847 34.4954 14.5095 34.4513 14.7529C34.4067 14.9987 34.4368 15.2521 34.5376 15.4806C34.5859 15.5898 34.6215 15.7039 34.644 15.8205C34.737 15.9642 34.8591 16.088 35.0031 16.1834C35.2057 16.3176 35.4429 16.3897 35.6858 16.3912H35.9742C37.3071 16.3912 38.5855 16.9207 39.528 17.8632C40.4705 18.8057 41 20.0841 41 21.417C41 22.7499 40.4705 24.0283 39.528 24.9708C38.5855 25.9133 37.3071 26.4428 35.9742 26.4428H35.8233C35.5804 26.4442 35.3432 26.5164 35.1407 26.6506C34.9374 26.7852 34.778 26.9762 34.682 27.2003L34.6753 27.2159C34.5745 27.4444 34.5443 27.6978 34.5888 27.9435C34.633 28.1869 34.7484 28.4117 34.9203 28.5895L35.0154 28.6846C35.4827 29.1513 35.8534 29.7056 36.1063 30.3157C36.3592 30.9259 36.4894 31.5799 36.4894 32.2403C36.4894 32.9008 36.3592 33.5548 36.1063 34.1649C35.8534 34.775 35.4827 35.3293 35.0154 35.7961L33.8938 34.6732L35.0166 35.7948C34.5499 36.2621 33.9956 36.6328 33.3855 36.8857C32.7753 37.1387 32.1214 37.2688 31.4609 37.2688C30.8004 37.2688 30.1464 37.1387 29.5363 36.8857C28.9262 36.6328 28.3719 36.2621 27.9051 35.7948L27.81 35.6997C27.6323 35.5278 27.4075 35.4124 27.1641 35.3683C26.9183 35.3237 26.6649 35.3538 26.4364 35.4546L26.4209 35.4615C26.1968 35.5575 26.0057 35.7169 25.8711 35.9201C25.737 36.1227 25.6648 36.3599 25.6634 36.6028V36.8912C25.6634 38.2241 25.1338 39.5024 24.1913 40.445C23.2488 41.3875 21.9705 41.917 20.6375 41.917C19.3046 41.917 18.0263 41.3875 17.0838 40.445C16.1412 39.5024 15.6117 38.2241 15.6117 36.8912V36.7587C15.6031 36.5133 15.5223 36.2757 15.3793 36.0757C15.2334 35.8717 15.0295 35.7163 14.7941 35.6298C14.7627 35.6182 14.7317 35.6057 14.7011 35.5922C14.4727 35.4914 14.2192 35.4613 13.9735 35.5058C13.7301 35.55 13.5053 35.6653 13.3275 35.8373L13.2324 35.9324C13.2322 35.9326 13.2326 35.9322 13.2324 35.9324C12.7658 36.3994 12.2111 36.7705 11.6012 37.0233C10.9911 37.2762 10.3371 37.4064 9.67666 37.4064C9.01619 37.4064 8.3622 37.2762 7.75208 37.0233C7.1425 36.7706 6.58866 36.4003 6.12215 35.9336C5.65487 35.4669 5.28417 34.9126 5.03125 34.3025C4.77833 33.6923 4.64815 33.0384 4.64815 32.3779C4.64815 31.7174 4.77833 31.0634 5.03125 30.4533C5.28406 29.8434 5.65454 29.2894 6.12154 28.8227L6.2173 28.727C6.38921 28.5492 6.50457 28.3245 6.5487 28.081C6.59326 27.8353 6.56318 27.5819 6.46235 27.3534L6.45547 27.3378C6.35945 27.1138 6.2001 26.9227 5.99688 26.7881C5.79433 26.654 5.5571 26.5818 5.31421 26.5803H5.02581C3.69288 26.5803 2.41455 26.0508 1.47202 25.1083C0.529503 24.1658 0 22.8875 0 21.5545C0 20.2216 0.529504 18.9433 1.47202 18.0008C2.41455 17.0582 3.69288 16.5287 5.02581 16.5287H5.15825C5.40372 16.5201 5.64133 16.4393 5.8413 16.2963C6.04528 16.1504 6.20066 15.9465 6.28723 15.7111C6.29877 15.6797 6.3113 15.6487 6.3248 15.6181C6.42563 15.3896 6.45571 15.1362 6.41115 14.8905C6.36702 14.6471 6.25163 14.4222 6.07969 14.2445L5.9846 14.1494C5.51732 13.6826 5.14662 13.1284 4.8937 12.5182C4.64078 11.9081 4.5106 11.2541 4.5106 10.5937C4.5106 9.93318 4.64078 9.27919 4.8937 8.66907C5.14651 8.05922 5.51699 7.50515 5.98398 7.03852C6.45061 6.57153 7.00468 6.20105 7.61453 5.94824C8.22465 5.69532 8.87864 5.56514 9.53911 5.56514C10.1996 5.56514 10.8536 5.69532 11.4637 5.94824C12.0738 6.20116 12.6281 6.57186 13.0949 7.03914L13.19 7.13423C13.3677 7.30617 13.5925 7.42156 13.8359 7.46569C14.0817 7.51025 14.3351 7.48017 14.5636 7.37934C14.6728 7.33112 14.7869 7.29552 14.9035 7.273C15.0473 7.17994 15.171 7.0579 15.2664 6.91387C15.4006 6.71133 15.4727 6.47409 15.4742 6.2312V5.9428C15.4742 4.60987 16.0037 3.33154 16.9462 2.38902ZM20.5 17.846C18.5278 17.846 16.929 19.4448 16.929 21.417C16.929 23.3892 18.5278 24.988 20.5 24.988C22.4722 24.988 24.071 23.3892 24.071 21.417C24.071 19.4448 22.4722 17.846 20.5 17.846ZM13.7548 21.417C13.7548 17.6917 16.7748 14.6718 20.5 14.6718C24.2252 14.6718 27.2452 17.6917 27.2452 21.417C27.2452 25.1422 24.2252 28.1622 20.5 28.1622C16.7748 28.1622 13.7548 25.1422 13.7548 21.417Z" fill="url(#paint0_linear_79_2743)"/>
<defs>
<linearGradient id="paint0_linear_79_2743" x1="20.5" y1="0.916992" x2="20.5" y2="41.917" gradientUnits="userSpaceOnUse">
<stop stop-color="#4E2A75"/>
<stop offset="1" stop-color="#E6515E"/>
</linearGradient>
</defs>
</svg>
