<svg width="38" height="38" viewBox="0 0 38 38" fill="none" xmlns="http://www.w3.org/2000/svg">
<path d="M19 0C29.4934 0 38 8.50659 38 19C38 29.4934 29.4934 38 19 38C8.50659 38 0 29.4934 0 19C0 8.50659 8.50659 0 19 0ZM20.0488 9.48438C19.502 8.94913 18.6475 8.91507 18.0625 9.38379L17.9492 9.48438L10.5605 16.7227C9.96952 17.3023 9.95998 18.2521 10.5391 18.8438C11.1187 19.435 12.0685 19.4445 12.6602 18.8652L17.499 14.124V27.4443C17.4993 28.2723 18.1711 28.9439 18.999 28.9443C19.8273 28.9443 20.4988 28.2726 20.499 27.4443V14.124L25.3389 18.8652C25.9306 19.4446 26.8803 19.4351 27.46 18.8438C28.0396 18.252 28.0291 17.3024 27.4375 16.7227L20.0488 9.48438Z" fill="url(#paint0_linear_120_21)"/>
<defs>
<linearGradient id="paint0_linear_120_21" x1="19" y1="0" x2="19" y2="38" gradientUnits="userSpaceOnUse">
<stop stop-color="#4E2A75"/>
<stop offset="1" stop-color="#E6515E"/>
</linearGradient>
</defs>
</svg>
