<svg width="36" height="40" viewBox="0 0 36 40" fill="none" xmlns="http://www.w3.org/2000/svg">
<path fill-rule="evenodd" clip-rule="evenodd" d="M18 4C14.6863 4 12 6.68629 12 10C12 13.3137 14.6863 16 18 16C21.3137 16 24 13.3137 24 10C24 6.68629 21.3137 4 18 4ZM8 10C8 4.47715 12.4772 0 18 0C23.5228 0 28 4.47715 28 10C28 15.5228 23.5228 20 18 20C12.4772 20 8 15.5228 8 10ZM2.92893 26.9289C4.80429 25.0536 7.34783 24 10 24H26C28.6522 24 31.1957 25.0536 33.0711 26.9289C34.9464 28.8043 36 31.3478 36 34V38C36 39.1046 35.1046 40 34 40C32.8954 40 32 39.1046 32 38V34C32 32.4087 31.3679 30.8826 30.2426 29.7574C29.1174 28.6321 27.5913 28 26 28H10C8.4087 28 6.88258 28.6321 5.75736 29.7574C4.63214 30.8826 4 32.4087 4 34V38C4 39.1046 3.10457 40 2 40C0.89543 40 0 39.1046 0 38V34C0 31.3478 1.05357 28.8043 2.92893 26.9289Z" fill="url(#paint0_linear_79_2739)"/>
<defs>
<linearGradient id="paint0_linear_79_2739" x1="18" y1="0" x2="18" y2="40" gradientUnits="userSpaceOnUse">
<stop stop-color="#4E2A75"/>
<stop offset="1" stop-color="#E6515E"/>
</linearGradient>
</defs>
</svg>
